<svg xmlns="http://www.w3.org/2000/svg" xmlns:xlink="http://www.w3.org/1999/xlink" width="500" zoomAndPan="magnify" viewBox="0 0 375 374.999991" height="500" preserveAspectRatio="xMidYMid meet" version="1.0"><defs><g/><clipPath id="be15a3400e"><rect x="0" width="143" y="0" height="282"/></clipPath><clipPath id="61bfcafba0"><rect x="0" width="184" y="0" height="252"/></clipPath></defs><g transform="matrix(1, 0, 0, 1, 80, 45)"><g clip-path="url(#be15a3400e)"><g fill="#000000" fill-opacity="1"><g transform="translate(1.979079, 209.660264)"><g><path d="M 31.609375 -132.90625 L 31.609375 -2.25 L 79.296875 -2.25 C 91.523438 -2.25 101.539062 -5.257812 109.34375 -11.28125 C 117.15625 -17.300781 123.597656 -27.460938 128.671875 -41.765625 L 122.1875 0 L 9.875 0 L 9.875 -199.21875 L 123.875 -199.21875 L 123.875 -176.65625 C 117.289062 -183.050781 110.894531 -187.703125 104.6875 -190.609375 C 98.476562 -193.523438 91.46875 -195.359375 83.65625 -196.109375 C 75.851562 -196.867188 66.21875 -197.25 54.75 -197.25 L 31.609375 -197.25 L 31.609375 -151.53125 C 31.609375 -138.738281 33.769531 -128.957031 38.09375 -122.1875 C 42.414062 -115.414062 48.90625 -110.851562 57.5625 -108.5 C 66.21875 -106.144531 77.035156 -104.96875 90.015625 -104.96875 L 90.015625 -82.6875 C 85.878906 -87.382812 80.941406 -91.097656 75.203125 -93.828125 C 69.460938 -96.554688 63.628906 -99.378906 57.703125 -102.296875 C 51.773438 -105.210938 46.457031 -108.972656 41.75 -113.578125 C 37.050781 -118.191406 33.671875 -124.632812 31.609375 -132.90625 Z M 31.609375 -132.90625 "/></g></g></g></g></g><g transform="matrix(1, 0, 0, 1, 138, 123)"><g clip-path="url(#61bfcafba0)"><g fill="#000000" fill-opacity="1"><g transform="translate(1.709536, 209.674452)"><g><path d="M 147.015625 0 L 115.125 -76.46875 C 103.09375 -75.34375 93.171875 -72.894531 85.359375 -69.125 C 77.554688 -65.363281 71.253906 -60.800781 66.453125 -55.4375 C 61.660156 -50.082031 57.804688 -44.488281 54.890625 -38.65625 C 51.972656 -32.820312 49.382812 -27.367188 47.125 -22.296875 C 44.488281 -15.335938 41.617188 -9.550781 38.515625 -4.9375 C 35.410156 -0.332031 30.660156 1.875 24.265625 1.6875 C 23.515625 1.5 22.804688 1.3125 22.140625 1.125 C 21.484375 0.9375 20.6875 0.46875 19.75 -0.28125 C 12.039062 -3.664062 8.9375 -11.847656 10.4375 -24.828125 C 11.1875 -31.035156 12.550781 -38.039062 14.53125 -45.84375 C 16.507812 -53.65625 19.191406 -62.078125 22.578125 -71.109375 C 27.648438 -84.648438 33.617188 -98.992188 40.484375 -114.140625 C 47.359375 -129.285156 54.601562 -144.242188 62.21875 -159.015625 C 69.84375 -173.785156 77.226562 -187.1875 84.375 -199.21875 L 86.34375 -199.21875 L 170.71875 0 Z M 114.28125 -78.453125 L 72.796875 -174.953125 C 64.148438 -158.398438 55.453125 -140.953125 46.703125 -122.609375 C 37.953125 -104.265625 30.566406 -86.910156 24.546875 -70.546875 C 21.160156 -61.515625 18.476562 -53.140625 16.5 -45.421875 C 14.53125 -37.710938 13.171875 -30.847656 12.421875 -24.828125 C 12.234375 -18.992188 12.703125 -14.054688 13.828125 -10.015625 C 14.953125 -5.972656 17.207031 -3.382812 20.59375 -2.25 C 21.539062 -2.0625 22.25 -1.875 22.71875 -1.6875 C 23.1875 -1.5 23.796875 -1.21875 24.546875 -0.84375 C 30.191406 -0.46875 34.425781 -2.441406 37.25 -6.765625 C 40.070312 -11.097656 42.613281 -16.460938 44.875 -22.859375 C 47.125 -28.128906 49.753906 -33.722656 52.765625 -39.640625 C 55.773438 -45.566406 59.769531 -51.257812 64.75 -56.71875 C 69.738281 -62.175781 76.179688 -66.878906 84.078125 -70.828125 C 91.984375 -74.773438 102.050781 -77.316406 114.28125 -78.453125 Z M 114.28125 -78.453125 "/></g></g></g></g></g></svg>